<svg xmlns="http://www.w3.org/2000/svg" version="1.1" xmlns:xlink="http://www.w3.org/1999/xlink" width="200" height="200"><svg xmlns="http://www.w3.org/2000/svg" version="1.1" xmlns:xlink="http://www.w3.org/1999/xlink" viewBox="0 0 200 200"><rect width="200" height="200" fill="url('#gradient')"></rect><defs><linearGradient id="SvgjsLinearGradient1001" gradientTransform="rotate(45 0.5 0.5)"><stop offset="0%" stop-color="#dee90b"></stop><stop offset="100%" stop-color="#d9e241"></stop></linearGradient></defs><g><g fill="#1b3855" transform="matrix(4.957504034427111,0,0,4.957504034427111,4.915379194241183,126.32684808344274)" stroke="#0e5278" stroke-width="0.2"><path d="M8.80-14.22L12.23-14.22L12.23-4.91Q12.23-3.33 11.55-2.17Q10.88-1.02 9.62-0.41Q8.36 0.20 6.64 0.20L6.64 0.20Q4.04 0.20 2.55-1.15Q1.05-2.50 1.03-4.84L1.03-4.84L1.03-14.22L4.47-14.22L4.47-4.78Q4.53-2.44 6.64-2.44L6.64-2.44Q7.71-2.44 8.25-3.03Q8.80-3.61 8.80-4.93L8.80-4.93L8.80-14.22ZM20.64-7.40L20.64-4.85L14.78-4.85L14.78-7.40L20.64-7.40ZM23.45-10.57L26.75-10.57L26.75 0.36Q26.74 2.24 25.67 3.25Q24.61 4.27 22.71 4.27L22.71 4.27Q21.88 4.27 21.15 4.10L21.15 4.10L21.15 1.61Q21.72 1.70 22.08 1.70L22.08 1.70Q23.45 1.70 23.45 0.34L23.45 0.34L23.45-10.57ZM23.20-13.29L23.20-13.29Q23.20-13.99 23.71-14.44Q24.22-14.89 25.03-14.89Q25.84-14.89 26.35-14.44Q26.86-13.99 26.86-13.29Q26.86-12.59 26.35-12.14Q25.84-11.69 25.03-11.69Q24.22-11.69 23.71-12.14Q23.20-12.59 23.20-13.29ZM34.14-2.97L34.14-2.97Q34.14-3.39 33.70-3.64Q33.26-3.90 32.03-4.17Q30.80-4.44 30-4.89Q29.20-5.33 28.78-5.97Q28.36-6.60 28.36-7.42L28.36-7.42Q28.36-8.88 29.56-9.82Q30.76-10.76 32.71-10.76L32.71-10.76Q34.79-10.76 36.06-9.81Q37.33-8.87 37.33-7.32L37.33-7.32L34.03-7.32Q34.03-8.59 32.70-8.59L32.70-8.59Q32.18-8.59 31.83-8.31Q31.47-8.02 31.47-7.59L31.47-7.59Q31.47-7.15 31.90-6.88Q32.33-6.60 33.28-6.43Q34.22-6.25 34.93-6.01L34.93-6.01Q37.31-5.19 37.31-3.07L37.31-3.07Q37.31-1.62 36.03-0.71Q34.75 0.20 32.71 0.20L32.71 0.20Q31.35 0.20 30.28-0.29Q29.22-0.78 28.62-1.62Q28.03-2.46 28.03-3.39L28.03-3.39L31.10-3.39Q31.12-2.66 31.59-2.32Q32.06-1.98 32.79-1.98L32.79-1.98Q33.47-1.98 33.80-2.26Q34.14-2.53 34.14-2.97Z"></path></g></g></svg><style>@media (prefers-color-scheme: light) { :root { filter: none; } }
@media (prefers-color-scheme: dark) { :root { filter: none; } }
</style></svg>